<?xml version="1.0" standalone="no"?>
<!DOCTYPE svg PUBLIC "-//W3C//DTD SVG 20010904//EN"
 "http://www.w3.org/TR/2001/REC-SVG-20010904/DTD/svg10.dtd">
<svg version="1.0" xmlns="http://www.w3.org/2000/svg"
 width="32.000000pt" height="32.000000pt" viewBox="0 0 32.000000 32.000000"
 preserveAspectRatio="xMidYMid meet">

<g transform="translate(0.000000,32.000000) scale(0.100000,-0.100000)"
fill="#000000" stroke="none">
<path d="M103 244 c-43 -26 -43 -26 -43 -85 l0 -59 50 -25 51 -26 49 27 c39
21 50 33 50 52 0 15 -7 26 -20 29 -23 6 -27 23 -5 23 24 0 31 31 10 46 -23 17
-35 18 -35 1 0 -7 -16 -21 -35 -32 -54 -28 -38 -63 18 -40 27 11 21 -20 -8
-39 -23 -15 -27 -15 -50 0 -18 12 -25 25 -25 48 0 27 6 34 45 55 36 19 43 27
34 37 -16 20 -38 17 -86 -12z"/>
</g>
</svg>
